<svg xmlns="http://www.w3.org/2000/svg" width="40" height="41" fill="none" viewBox="0 0 40 41">
    <path fill="#fff" fill-rule="evenodd" d="M5 17.33v1c0 1.886 0 2.828.586 3.414.586.586 1.528.586 3.414.586h2.892c.696 0 1.043 0 1.305.189s.372.519.592 1.179l.755 2.264c.22.66.33.99.592 1.18.262.188.61.188 1.306.188h7.116c.696 0 1.044 0 1.306-.189s.372-.519.592-1.179l.755-2.264c.22-.66.33-.99.592-1.18.262-.188.61-.188 1.305-.188H31c1.886 0 2.828 0 3.414-.586.577-.577.586-1.5.586-3.33v11.25c0 2.828 0 4.242-.879 5.12-.878.88-2.293.88-5.121.88H11c-2.828 0-4.243 0-5.121-.88C5 33.907 5 32.493 5 29.665V17.33Z" clip-rule="evenodd"/>
    <path stroke="#fff" stroke-width="3" d="M5 9.663c0-1.885 0-2.828.586-3.414.586-.586 1.528-.586 3.414-.586h22c1.886 0 2.828 0 3.414.586C35 6.835 35 7.778 35 9.663v22c0 1.886 0 2.829-.586 3.415-.586.585-1.528.585-3.414.585H9c-1.886 0-2.828 0-3.414-.585C5 34.492 5 33.547 5 31.663v-22Z"/>
</svg>