<svg xmlns="http://www.w3.org/2000/svg" width="48" height="49" fill="none" viewBox="0 0 48 49">
    <path fill="#fff" d="m24 31.555 7.3-7.3-7.3-7.3-2.1 2.1 3.7 3.7h-9.1v3h9.1l-3.7 3.7 2.1 2.1Zm0 12.7c-2.733 0-5.317-.525-7.75-1.575-2.433-1.05-4.558-2.483-6.375-4.3-1.817-1.816-3.25-3.941-4.3-6.375C4.525 29.572 4 26.99 4 24.255c0-2.766.525-5.366 1.575-7.8 1.05-2.433 2.483-4.55 4.3-6.35 1.817-1.8 3.942-3.225 6.375-4.275 2.433-1.05 5.017-1.575 7.75-1.575 2.767 0 5.367.525 7.8 1.575 2.433 1.05 4.55 2.475 6.35 4.275 1.8 1.8 3.225 3.917 4.275 6.35C43.475 18.89 44 21.49 44 24.256c0 2.734-.525 5.317-1.575 7.75-1.05 2.434-2.475 4.559-4.275 6.375-1.8 1.817-3.917 3.25-6.35 4.3-2.433 1.05-5.033 1.575-7.8 1.575Zm0-3c4.733 0 8.75-1.658 12.05-4.974 3.3-3.317 4.95-7.325 4.95-12.025 0-4.734-1.65-8.75-4.95-12.05-3.3-3.3-7.317-4.95-12.05-4.95-4.7 0-8.708 1.65-12.025 4.95C8.658 15.506 7 19.521 7 24.256c0 4.7 1.658 8.708 4.975 12.025C15.292 39.597 19.3 41.255 24 41.255Z"/>
</svg>
