<svg xmlns="http://www.w3.org/2000/svg" width="26" height="26" fill="none" viewBox="0 0 26 26">
    <path fill="#fff" d="M2.953 25.085c-.555 0-1.041-.208-1.458-.625-.417-.417-.625-.903-.625-1.458V2.168c0-.555.208-1.041.625-1.458.417-.417.903-.625 1.458-.625h20.834c.555 0 1.041.208 1.458.625.416.417.625.903.625 1.458v20.834c0 .555-.209 1.041-.625 1.458-.417.417-.903.625-1.459.625H2.954Zm0-2.083h9.375V2.168H2.953v20.834Zm11.459 0h9.374V12.55h-9.375v10.452Zm0-12.535h9.374V2.168h-9.375v8.299Z"/>
</svg>