<svg xmlns="http://www.w3.org/2000/svg" width="20" height="21" fill="none" viewBox="0 0 20 21">
    <mask id="a" width="15" height="15" x="2.167" y="3.205" fill="#000" maskUnits="userSpaceOnUse">
        <path fill="#fff" d="M2.167 3.205h15v15h-15z"/>
        <path d="m11.25 6.455-5.858 5.858c-.195.195-.292.292-.36.41-.066.119-.1.252-.167.52L4.37 15.23c-.09.361-.136.541-.036.642.1.1.28.055.642-.036l1.987-.497c.267-.066.401-.1.52-.167.118-.067.215-.164.41-.359l5.858-5.858c.508-.508.763-.763.819-1.069a.996.996 0 0 0 0-.362c-.056-.306-.31-.56-.82-1.069-.508-.508-.762-.763-1.068-.82a1 1 0 0 0-.362 0c-.306.057-.56.312-1.07.82Z"/>
    </mask>
    <path fill="#CCD2E3" d="m5.392 12.313 1.414 1.415-1.414-1.415Zm5.858-5.858L9.836 5.041l1.414 1.414Zm2.5 2.5 1.414 1.414.042-.041.039-.044-1.495-1.329Zm-5.858 5.858 1.414 1.415-1.414-1.415Zm-3.027-1.57-1.94-.486 1.94.486ZM4.37 15.23l1.94.485-1.94-.485Zm.606.606-.485-1.94-.087.022-.085.03.657 1.888Zm1.987-.497.485 1.94-.485-1.94Zm-2.629.533 1.415-1.415-1.415 1.415Zm.642-.036.485 1.94.087-.021.085-.03-.657-1.889Zm2.506-.664.986 1.74-.986-1.74Zm6.269-8.717L12.336 7.87l1.414-1.414Zm.819 1.069-1.967.362 1.967-.362Zm-.82 1.431-1.413-1.414-.042.041-.039.044 1.495 1.33Zm.82-1.069-1.967-.362 1.967.362Zm-2.25-2.25-.363-1.967.363 1.967Zm.362 0 .363-1.967-.363 1.967Zm-7.648 7.088-1.74-.986 1.74.986Zm1.773 1.004 5.858-5.859-2.828-2.828-5.859 5.858 2.829 2.829Zm5.53-6.187-5.859 5.858 2.829 2.829 5.858-5.859-2.828-2.828Zm-9.41 5.216-.498 1.988 3.88.97.498-1.987-3.88-.97Zm2.534 5.02 1.987-.497-.97-3.88-1.987.496.97 3.88Zm-3.032-3.032c-.028.115-.11.423-.139.709-.03.31-.057 1.144.63 1.832l2.829-2.829c.265.266.418.582.485.874.059.255.043.45.037.512-.007.068-.016.1-.006.059a4.66 4.66 0 0 1 .045-.187l-3.88-.97Zm1.89-.798 1.314 3.778-1.314-3.778Zm.172-.051a8.457 8.457 0 0 1-.187.045c-.04.01-.009 0 .059-.006.062-.006.257-.022.512.037.292.067.608.22.874.485L2.92 17.286c.688.687 1.521.66 1.832.63.286-.028.594-.11.709-.14l-.97-3.88Zm1.987-.497-.065.065a7.228 7.228 0 0 1-.08.08l-.009.007-.002.002.003-.002.009-.008a.83.83 0 0 1 .092-.068 1.27 1.27 0 0 1 .07-.043l1.972 3.48c.409-.23.72-.565.839-.684l-2.829-2.829Zm.97 3.88c.165-.04.61-.135 1.02-.366l-1.971-3.481a1.199 1.199 0 0 1 .194-.088l-.003.001-.011.003a2.451 2.451 0 0 1-.11.029l-.089.022.97 3.88Zm4.889-9.41c.13.132.227.228.306.31.08.084.118.127.134.147.015.019-.014-.014-.054-.089a1.228 1.228 0 0 1-.12-.35l3.934-.726c-.114-.617-.417-1.064-.654-1.356-.215-.265-.494-.54-.718-.764l-2.828 2.828Zm2.909 2.415-2.99-2.658 2.99 2.658Zm-.08.085c.223-.224.502-.5.717-.764.237-.292.54-.739.654-1.356l-3.934-.725c.027-.148.076-.268.12-.351.04-.075.07-.108.054-.088-.016.02-.054.063-.134.146-.08.083-.175.179-.306.31l2.828 2.828Zm-2.563-2.483a1 1 0 0 1 0-.362l3.934.725c.066-.36.066-.728 0-1.088l-3.934.725Zm.062-.017c.131-.13.227-.227.31-.307.083-.08.127-.117.146-.133.02-.016-.013.014-.088.054a1.232 1.232 0 0 1-.35.12l-.726-3.934c-.617.114-1.064.417-1.356.654-.265.215-.54.494-.764.718l2.828 2.828Zm2.5-2.828c-.224-.224-.5-.503-.764-.718-.292-.237-.739-.54-1.356-.654l-.726 3.934a1.231 1.231 0 0 1-.35-.12c-.075-.04-.108-.07-.089-.054.02.016.063.054.146.133.083.08.18.176.31.307l2.83-2.828Zm-2.483 2.562a1 1 0 0 1-.362 0l.725-3.934a3 3 0 0 0-1.088 0l.725 3.934Zm-8.704 3.296c-.12.12-.453.43-.685.84l3.481 1.97a1.209 1.209 0 0 1-.111.163l-.008.01-.002.002.002-.002.008-.009a2.724 2.724 0 0 1 .079-.08l.065-.065-2.829-2.829Zm2.829 2.829.022-.09a9.082 9.082 0 0 1 .033-.123l-.002.004-.003.01a.928.928 0 0 1-.045.107 1.213 1.213 0 0 1-.038.073l-3.48-1.97c-.232.408-.327.854-.368 1.018l3.88.97Z" mask="url(#a)"/>
    <path fill="#CCD2E3" d="m10.416 6.455 2.5-1.667 2.5 2.5-1.666 2.5-3.334-3.333Z"/>
</svg>