<svg xmlns="http://www.w3.org/2000/svg" width="26" height="26" fill="none" viewBox="0 0 26 26">
    <g clip-path="url(#a)">
        <path fill="#fff" d="M2.745 22.585c-.5 0-.938-.193-1.313-.578-.375-.386-.562-.818-.562-1.297V4.46c0-.48.187-.911.562-1.297.375-.385.813-.578 1.313-.578h8.75L13.37 4.46h10.625c.479 0 .911.193 1.297.578.385.385.578.818.578 1.297V20.71c0 .48-.193.911-.578 1.297-.386.385-.818.578-1.297.578H2.745Zm0-18.125v16.25h21.25V6.335H12.589L10.714 4.46h-7.97Z"/>
    </g>
    <defs>
        <clipPath id="a">
            <path fill="#fff" d="M0 0h25v25H0z" transform="translate(.87 .085)"/>
        </clipPath>
    </defs>
</svg>