<svg xmlns="http://www.w3.org/2000/svg" width="35" height="35" fill="none" viewBox="0 0 35 35">
    <path fill="#6D6D6D" d="M29.02 30.588 19.433 21a8.038 8.038 0 0 1-2.55 1.477 9.017 9.017 0 0 1-3.1.528c-2.63 0-4.855-.911-6.676-2.734-1.82-1.823-2.731-4.023-2.731-6.6 0-2.576.911-4.775 2.734-6.598 1.823-1.823 4.029-2.735 6.618-2.735 2.588 0 4.788.912 6.599 2.735 1.81 1.823 2.716 4.024 2.716 6.604 0 1.042-.17 2.049-.51 3.02A9.252 9.252 0 0 1 21 19.433l9.625 9.552-1.604 1.604Zm-15.275-9.77c1.975 0 3.653-.7 5.036-2.097 1.382-1.397 2.073-3.08 2.073-5.05 0-1.968-.691-3.651-2.073-5.049-1.383-1.397-3.061-2.096-5.036-2.096-1.995 0-3.691.699-5.088 2.096-1.396 1.398-2.095 3.081-2.095 5.05 0 1.969.699 3.652 2.095 5.05 1.397 1.397 3.093 2.096 5.088 2.096Z"/>
</svg>