<svg xmlns="http://www.w3.org/2000/svg" width="26" height="26" fill="none" viewBox="0 0 26 26">
    <g clip-path="url(#a)">
        <path fill="#fff" d="M17.055 13.398c.627 0 1.164-.224 1.612-.67a2.19 2.19 0 0 0 .672-1.61 2.2 2.2 0 0 0-.67-1.611 2.19 2.19 0 0 0-1.61-.672 2.2 2.2 0 0 0-1.611.67 2.19 2.19 0 0 0-.672 1.609c0 .626.223 1.164.67 1.612a2.19 2.19 0 0 0 1.609.671Zm-4.998 5.437h10v-.594c0-.875-.442-1.552-1.328-2.031-.885-.48-2.11-.719-3.672-.719-1.562 0-2.786.24-3.671.719-.886.48-1.329 1.156-1.329 2.031v.594Zm-9.312 3.75c-.5 0-.938-.193-1.313-.578-.375-.386-.562-.818-.562-1.297V4.46c0-.48.187-.911.562-1.297.375-.385.813-.578 1.313-.578h8.75L13.37 4.46h10.625c.479 0 .911.193 1.297.578.385.385.578.818.578 1.297V20.71c0 .48-.193.911-.578 1.297-.386.385-.818.578-1.297.578H2.745Zm0-18.125v16.25h21.25V6.335H12.589L10.714 4.46h-7.97Z"/>
    </g>
    <defs>
        <clipPath id="a">
            <path fill="#fff" d="M0 0h25v25H0z" transform="translate(.87 .085)"/>
        </clipPath>
    </defs>
</svg>