<svg xmlns="http://www.w3.org/2000/svg" width="26" height="26" fill="none" viewBox="0 0 26 26">
    <g clip-path="url(#a)">
        <path fill="#fff" d="M3.648 25.085.87 8.418h25l-2.778 16.667H3.648Zm1.736-2.083h15.972l1.98-12.5H3.404l1.979 12.5Zm5.208-6.945h5.556c.3 0 .55-.104.746-.312a1.03 1.03 0 0 0 .295-.73c0-.3-.098-.55-.295-.746a1.012 1.012 0 0 0-.746-.295h-5.556c-.278 0-.52.098-.73.295a.983.983 0 0 0-.312.746 1 1 0 0 0 .313.73 1 1 0 0 0 .73.312ZM5.037 6.335a1 1 0 0 1-.73-.313 1 1 0 0 1-.312-.729c0-.3.104-.55.312-.746a1.03 1.03 0 0 1 .73-.295h16.666c.301 0 .55.098.747.295.197.197.295.445.295.746 0 .278-.099.521-.295.73a.983.983 0 0 1-.747.312H5.037Zm2.777-4.167a1 1 0 0 1-.729-.312 1 1 0 0 1-.312-.73c0-.3.104-.55.312-.746.208-.197.452-.295.73-.295h11.11c.301 0 .55.098.747.295.197.197.295.446.295.747 0 .277-.098.52-.295.729a.983.983 0 0 1-.747.312H7.815Z"/>
    </g>
    <defs>
        <clipPath id="a">
            <path fill="#fff" d="M0 0h25v25H0z" transform="translate(.87 .085)"/>
        </clipPath>
    </defs>
</svg>