<svg xmlns="http://www.w3.org/2000/svg" width="21" height="21" fill="none" viewBox="0 0 21 21">
    <path stroke="#CCD2E3" stroke-linecap="round" stroke-width="1.7" d="M9.266 12.612v-2.5m3.334 2.5v-2.5M3.433 5.945h15v0c-.465 0-.697 0-.89.038a2 2 0 0 0-1.571 1.572c-.039.193-.039.425-.039.89v4.333c0 1.886 0 2.829-.586 3.414-.585.586-1.528.586-3.414.586h-2c-1.886 0-2.828 0-3.414-.586-.586-.585-.586-1.528-.586-3.414V8.445c0-.465 0-.697-.038-.89a2 2 0 0 0-1.572-1.572c-.193-.038-.425-.038-.89-.038v0Zm5.89-3.025c.095-.088.305-.166.596-.222a5.567 5.567 0 0 1 1.014-.086c.367 0 .724.03 1.015.086.29.056.5.134.595.222"/>
</svg>