<svg xmlns="http://www.w3.org/2000/svg" width="24" height="25" fill="none" viewBox="0 0 24 25">
    <path fill="#CCD2E3" fill-rule="evenodd" d="M21 6.361H3v3a2 2 0 0 1 2 2v4c0 2.829 0 4.243.879 5.122.878.878 2.293.878 5.121.878h2c2.828 0 4.243 0 5.121-.878C19 19.604 19 18.19 19 15.36v-4a2 2 0 0 1 2-2v-3Zm-10.5 5a1 1 0 1 0-2 0v5a1 1 0 1 0 2 0v-5Zm5 0a1 1 0 1 0-2 0v5a1 1 0 1 0 2 0v-5Z" clip-rule="evenodd"/>
    <path stroke="#CCD2E3" stroke-linecap="round" stroke-width="2" d="M10.068 3.732c.114-.106.365-.2.715-.267A6.68 6.68 0 0 1 12 3.36c.44 0 .868.037 1.217.104.35.067.6.16.715.267"/>
</svg>