<svg xmlns="http://www.w3.org/2000/svg" width="61" height="44" fill="none" viewBox="0 0 61 44">
    <path fill="#4D5BDC" d="M14.818 43.568c-3.909 0-7.273-1.409-10.09-4.227C1.908 36.523.5 33.159.5 29.25c0-3.546 1.125-6.67 3.375-9.375 2.25-2.704 5.148-4.33 8.693-4.875.91-4.41 3.046-8.011 6.41-10.807C22.34 1.398 26.227 0 30.635 0c5.137 0 9.444 1.852 12.92 5.557 3.478 3.704 5.217 8.147 5.217 13.33v1.636c3.272-.091 6.045.966 8.318 3.17 2.273 2.205 3.409 4.989 3.409 8.352 0 3.137-1.136 5.841-3.41 8.114-2.272 2.273-4.976 3.41-8.113 3.41h-16.43c-1.091 0-2.046-.41-2.864-1.228-.818-.818-1.227-1.773-1.227-2.864v-17.59l-5.66 5.659-2.931-2.932L30.5 13.977l10.636 10.637-2.931 2.931-5.66-5.659v17.591h16.432c2.046 0 3.796-.727 5.25-2.181 1.455-1.455 2.182-3.205 2.182-5.25 0-2.046-.727-3.796-2.182-5.25-1.454-1.455-3.204-2.182-5.25-2.182h-4.295v-5.728c0-4.045-1.375-7.522-4.125-10.431-2.75-2.91-6.148-4.364-10.193-4.364-4.046 0-7.455 1.454-10.228 4.364-2.772 2.909-4.159 6.386-4.159 10.431h-1.295c-2.818 0-5.205.989-7.16 2.966-1.954 1.977-2.931 4.42-2.931 7.33 0 2.818.998 5.238 2.995 7.261 1.997 2.023 4.407 3.034 7.232 3.034h9.546v4.091h-9.546Z"/>
</svg>