<svg xmlns="http://www.w3.org/2000/svg" width="31" height="23" fill="none" viewBox="0 0 31 23">
    <path fill="#fff" d="M7.701 22.48c-1.954 0-3.636-.704-5.045-2.113-1.41-1.41-2.114-3.09-2.114-5.046 0-1.772.563-3.335 1.688-4.687 1.125-1.352 2.574-2.165 4.346-2.437C7.031 5.992 8.1 4.19 9.781 2.793c1.682-1.398 3.625-2.096 5.83-2.096 2.568 0 4.721.926 6.46 2.778 1.738 1.852 2.608 4.074 2.608 6.665v.818c1.636-.046 3.023.483 4.159 1.585 1.136 1.102 1.704 2.494 1.704 4.176 0 1.568-.568 2.92-1.704 4.057-1.137 1.136-2.489 1.705-4.057 1.705h-8.216c-.545 0-1.023-.205-1.432-.614-.409-.41-.613-.886-.613-1.432V11.64l-2.83 2.83-1.466-1.467 5.318-5.318 5.318 5.318-1.465 1.466-2.83-2.83v8.796h8.216c1.023 0 1.898-.363 2.625-1.09.727-.728 1.09-1.603 1.09-2.626s-.363-1.898-1.09-2.625c-.727-.727-1.602-1.09-2.625-1.09h-2.148V10.14c0-2.023-.687-3.762-2.062-5.216-1.375-1.455-3.074-2.182-5.097-2.182-2.023 0-3.727.727-5.114 2.182-1.386 1.454-2.079 3.193-2.079 5.216h-.648c-1.409 0-2.602.494-3.58 1.483-.977.988-1.465 2.21-1.465 3.664 0 1.41.499 2.62 1.497 3.631.999 1.012 2.204 1.517 3.616 1.517h4.773v2.046H7.701Z"/>
</svg>